<mxfile host="Electron" agent="Mozilla/5.0 (Windows NT 10.0; Win64; x64) AppleWebKit/537.36 (KHTML, like Gecko) draw.io/25.0.2 Chrome/128.0.6613.186 Electron/32.2.5 Safari/537.36" version="25.0.2">
  <diagram id="C5RBs43oDa-KdzZeNtuy" name="Page-1">
    <mxGraphModel dx="2625" dy="1553" grid="1" gridSize="10" guides="1" tooltips="1" connect="1" arrows="1" fold="1" page="1" pageScale="1" pageWidth="827" pageHeight="1169" math="0" shadow="0">
      <root>
        <mxCell id="WIyWlLk6GJQsqaUBKTNV-0" />
        <mxCell id="WIyWlLk6GJQsqaUBKTNV-1" parent="WIyWlLk6GJQsqaUBKTNV-0" />
        <mxCell id="UMQpOY0UENCOEE6AcVDK-0" value="" style="whiteSpace=wrap;html=1;aspect=fixed;" vertex="1" parent="WIyWlLk6GJQsqaUBKTNV-1">
          <mxGeometry x="490" y="240" width="940" height="940" as="geometry" />
        </mxCell>
        <mxCell id="UMQpOY0UENCOEE6AcVDK-1" value="User" style="shape=umlActor;verticalLabelPosition=bottom;verticalAlign=top;html=1;outlineConnect=0;" vertex="1" parent="WIyWlLk6GJQsqaUBKTNV-1">
          <mxGeometry x="300" y="360" width="30" height="60" as="geometry" />
        </mxCell>
        <mxCell id="UMQpOY0UENCOEE6AcVDK-3" value="Student" style="shape=umlActor;verticalLabelPosition=bottom;verticalAlign=top;html=1;outlineConnect=0;" vertex="1" parent="WIyWlLk6GJQsqaUBKTNV-1">
          <mxGeometry x="390" y="530" width="30" height="60" as="geometry" />
        </mxCell>
        <mxCell id="UMQpOY0UENCOEE6AcVDK-6" value="" style="endArrow=none;html=1;rounded=0;exitX=0.5;exitY=0;exitDx=0;exitDy=0;exitPerimeter=0;entryX=0.5;entryY=0;entryDx=0;entryDy=0;entryPerimeter=0;" edge="1" parent="WIyWlLk6GJQsqaUBKTNV-1" target="UMQpOY0UENCOEE6AcVDK-3">
          <mxGeometry width="50" height="50" relative="1" as="geometry">
            <mxPoint x="225" y="540" as="sourcePoint" />
            <mxPoint x="460" y="610" as="targetPoint" />
            <Array as="points">
              <mxPoint x="225" y="500" />
              <mxPoint x="405" y="500" />
            </Array>
          </mxGeometry>
        </mxCell>
        <mxCell id="UMQpOY0UENCOEE6AcVDK-7" value="Admin" style="shape=umlActor;verticalLabelPosition=bottom;verticalAlign=top;html=1;outlineConnect=0;" vertex="1" parent="WIyWlLk6GJQsqaUBKTNV-1">
          <mxGeometry x="210" y="540" width="30" height="60" as="geometry" />
        </mxCell>
        <mxCell id="UMQpOY0UENCOEE6AcVDK-12" value="" style="edgeStyle=elbowEdgeStyle;html=1;endSize=12;endArrow=block;endFill=0;elbow=horizontal;rounded=0;labelBackgroundColor=default;fontFamily=Helvetica;fontSize=11;fontColor=default;shape=connector;" edge="1" parent="WIyWlLk6GJQsqaUBKTNV-1">
          <mxGeometry x="1" relative="1" as="geometry">
            <mxPoint x="314.83" y="440" as="targetPoint" />
            <mxPoint x="315" y="500" as="sourcePoint" />
          </mxGeometry>
        </mxCell>
        <mxCell id="UMQpOY0UENCOEE6AcVDK-15" value="Admi Login" style="ellipse;whiteSpace=wrap;html=1;" vertex="1" parent="WIyWlLk6GJQsqaUBKTNV-1">
          <mxGeometry x="690" y="270" width="290" height="80" as="geometry" />
        </mxCell>
        <mxCell id="UMQpOY0UENCOEE6AcVDK-16" value="Start Election" style="ellipse;whiteSpace=wrap;html=1;" vertex="1" parent="WIyWlLk6GJQsqaUBKTNV-1">
          <mxGeometry x="700" y="370" width="290" height="80" as="geometry" />
        </mxCell>
        <mxCell id="UMQpOY0UENCOEE6AcVDK-17" value="Add Canidate" style="ellipse;whiteSpace=wrap;html=1;" vertex="1" parent="WIyWlLk6GJQsqaUBKTNV-1">
          <mxGeometry x="710" y="470" width="290" height="80" as="geometry" />
        </mxCell>
        <mxCell id="UMQpOY0UENCOEE6AcVDK-18" value="View Result" style="ellipse;whiteSpace=wrap;html=1;" vertex="1" parent="WIyWlLk6GJQsqaUBKTNV-1">
          <mxGeometry x="720" y="585" width="290" height="80" as="geometry" />
        </mxCell>
        <mxCell id="UMQpOY0UENCOEE6AcVDK-19" value="Entry Studate Panle" style="ellipse;whiteSpace=wrap;html=1;" vertex="1" parent="WIyWlLk6GJQsqaUBKTNV-1">
          <mxGeometry x="720" y="700" width="290" height="80" as="geometry" />
        </mxCell>
        <mxCell id="UMQpOY0UENCOEE6AcVDK-20" value="Give Student ID" style="ellipse;whiteSpace=wrap;html=1;" vertex="1" parent="WIyWlLk6GJQsqaUBKTNV-1">
          <mxGeometry x="730" y="810" width="290" height="80" as="geometry" />
        </mxCell>
        <mxCell id="UMQpOY0UENCOEE6AcVDK-21" value="Give the vote" style="ellipse;whiteSpace=wrap;html=1;" vertex="1" parent="WIyWlLk6GJQsqaUBKTNV-1">
          <mxGeometry x="730" y="909" width="290" height="80" as="geometry" />
        </mxCell>
        <mxCell id="UMQpOY0UENCOEE6AcVDK-22" value="View Result" style="ellipse;whiteSpace=wrap;html=1;" vertex="1" parent="WIyWlLk6GJQsqaUBKTNV-1">
          <mxGeometry x="740" y="1000" width="290" height="80" as="geometry" />
        </mxCell>
        <mxCell id="UMQpOY0UENCOEE6AcVDK-23" value="" style="endArrow=classic;html=1;rounded=0;exitX=0.75;exitY=0.1;exitDx=0;exitDy=0;exitPerimeter=0;entryX=0;entryY=0.5;entryDx=0;entryDy=0;" edge="1" parent="WIyWlLk6GJQsqaUBKTNV-1" source="UMQpOY0UENCOEE6AcVDK-7" target="UMQpOY0UENCOEE6AcVDK-15">
          <mxGeometry width="50" height="50" relative="1" as="geometry">
            <mxPoint x="780" y="790" as="sourcePoint" />
            <mxPoint x="830" y="740" as="targetPoint" />
          </mxGeometry>
        </mxCell>
        <mxCell id="UMQpOY0UENCOEE6AcVDK-24" value="" style="endArrow=classic;html=1;rounded=0;exitX=0.75;exitY=0.1;exitDx=0;exitDy=0;exitPerimeter=0;entryX=0;entryY=0.5;entryDx=0;entryDy=0;" edge="1" parent="WIyWlLk6GJQsqaUBKTNV-1" source="UMQpOY0UENCOEE6AcVDK-7" target="UMQpOY0UENCOEE6AcVDK-16">
          <mxGeometry width="50" height="50" relative="1" as="geometry">
            <mxPoint x="113" y="556" as="sourcePoint" />
            <mxPoint x="700" y="320" as="targetPoint" />
          </mxGeometry>
        </mxCell>
        <mxCell id="UMQpOY0UENCOEE6AcVDK-25" value="" style="endArrow=classic;html=1;rounded=0;exitX=0.75;exitY=0.1;exitDx=0;exitDy=0;exitPerimeter=0;entryX=0;entryY=0.5;entryDx=0;entryDy=0;" edge="1" parent="WIyWlLk6GJQsqaUBKTNV-1" source="UMQpOY0UENCOEE6AcVDK-7" target="UMQpOY0UENCOEE6AcVDK-17">
          <mxGeometry width="50" height="50" relative="1" as="geometry">
            <mxPoint x="113" y="556" as="sourcePoint" />
            <mxPoint x="710" y="420" as="targetPoint" />
          </mxGeometry>
        </mxCell>
        <mxCell id="UMQpOY0UENCOEE6AcVDK-26" value="" style="endArrow=classic;html=1;rounded=0;exitX=0.75;exitY=0.1;exitDx=0;exitDy=0;exitPerimeter=0;entryX=0;entryY=0.5;entryDx=0;entryDy=0;" edge="1" parent="WIyWlLk6GJQsqaUBKTNV-1" source="UMQpOY0UENCOEE6AcVDK-7" target="UMQpOY0UENCOEE6AcVDK-18">
          <mxGeometry width="50" height="50" relative="1" as="geometry">
            <mxPoint x="113" y="556" as="sourcePoint" />
            <mxPoint x="720" y="520" as="targetPoint" />
          </mxGeometry>
        </mxCell>
        <mxCell id="UMQpOY0UENCOEE6AcVDK-27" value="" style="endArrow=classic;html=1;rounded=0;exitX=0.75;exitY=0.1;exitDx=0;exitDy=0;exitPerimeter=0;entryX=0;entryY=0.5;entryDx=0;entryDy=0;" edge="1" parent="WIyWlLk6GJQsqaUBKTNV-1" source="UMQpOY0UENCOEE6AcVDK-3" target="UMQpOY0UENCOEE6AcVDK-19">
          <mxGeometry width="50" height="50" relative="1" as="geometry">
            <mxPoint x="640" y="700" as="sourcePoint" />
            <mxPoint x="690" y="650" as="targetPoint" />
          </mxGeometry>
        </mxCell>
        <mxCell id="UMQpOY0UENCOEE6AcVDK-28" value="" style="endArrow=classic;html=1;rounded=0;exitX=0.75;exitY=0.1;exitDx=0;exitDy=0;exitPerimeter=0;entryX=0;entryY=0.5;entryDx=0;entryDy=0;" edge="1" parent="WIyWlLk6GJQsqaUBKTNV-1" source="UMQpOY0UENCOEE6AcVDK-3" target="UMQpOY0UENCOEE6AcVDK-20">
          <mxGeometry width="50" height="50" relative="1" as="geometry">
            <mxPoint x="423" y="546" as="sourcePoint" />
            <mxPoint x="730" y="750" as="targetPoint" />
          </mxGeometry>
        </mxCell>
        <mxCell id="UMQpOY0UENCOEE6AcVDK-29" value="" style="endArrow=classic;html=1;rounded=0;exitX=0.75;exitY=0.1;exitDx=0;exitDy=0;exitPerimeter=0;entryX=0;entryY=0.5;entryDx=0;entryDy=0;" edge="1" parent="WIyWlLk6GJQsqaUBKTNV-1" source="UMQpOY0UENCOEE6AcVDK-3" target="UMQpOY0UENCOEE6AcVDK-21">
          <mxGeometry width="50" height="50" relative="1" as="geometry">
            <mxPoint x="423" y="546" as="sourcePoint" />
            <mxPoint x="740" y="860" as="targetPoint" />
          </mxGeometry>
        </mxCell>
        <mxCell id="UMQpOY0UENCOEE6AcVDK-30" value="" style="endArrow=classic;html=1;rounded=0;exitX=0.75;exitY=0.1;exitDx=0;exitDy=0;exitPerimeter=0;entryX=0.034;entryY=0.653;entryDx=0;entryDy=0;entryPerimeter=0;" edge="1" parent="WIyWlLk6GJQsqaUBKTNV-1" source="UMQpOY0UENCOEE6AcVDK-3" target="UMQpOY0UENCOEE6AcVDK-22">
          <mxGeometry width="50" height="50" relative="1" as="geometry">
            <mxPoint x="770" y="840" as="sourcePoint" />
            <mxPoint x="820" y="790" as="targetPoint" />
          </mxGeometry>
        </mxCell>
        <mxCell id="UMQpOY0UENCOEE6AcVDK-31" value="Log Out" style="ellipse;whiteSpace=wrap;html=1;" vertex="1" parent="WIyWlLk6GJQsqaUBKTNV-1">
          <mxGeometry x="740" y="1100" width="290" height="60" as="geometry" />
        </mxCell>
        <mxCell id="UMQpOY0UENCOEE6AcVDK-32" value="" style="endArrow=classic;html=1;rounded=0;exitX=0.5;exitY=0;exitDx=0;exitDy=0;exitPerimeter=0;entryX=0;entryY=0.5;entryDx=0;entryDy=0;" edge="1" parent="WIyWlLk6GJQsqaUBKTNV-1" source="UMQpOY0UENCOEE6AcVDK-7" target="UMQpOY0UENCOEE6AcVDK-31">
          <mxGeometry width="50" height="50" relative="1" as="geometry">
            <mxPoint x="770" y="840" as="sourcePoint" />
            <mxPoint x="820" y="790" as="targetPoint" />
          </mxGeometry>
        </mxCell>
      </root>
    </mxGraphModel>
  </diagram>
</mxfile>
